<svg xmlns="http://www.w3.org/2000/svg" xmlns:xlink="http://www.w3.org/1999/xlink" width="500" zoomAndPan="magnify" viewBox="0 0 375 374.999991" height="500" preserveAspectRatio="xMidYMid meet" version="1.0"><defs><clipPath id="e8a0102055"><path d="M 20 16 L 369.046875 16 L 369.046875 342 L 20 342 Z M 20 16 " clip-rule="nonzero"/></clipPath><clipPath id="95624de25e"><path d="M 5.480469 9.347656 L 304 9.347656 L 304 351 L 5.480469 351 Z M 5.480469 9.347656 " clip-rule="nonzero"/></clipPath><clipPath id="d09ced9835"><path d="M 14.589844 331 L 349 331 L 349 365.597656 L 14.589844 365.597656 Z M 14.589844 331 " clip-rule="nonzero"/></clipPath></defs><g clip-path="url(#e8a0102055)"><path fill="#db3f40" d="M 286.015625 341.359375 L 286.285156 341.121094 C 287.394531 340.109375 294.175781 333.605469 295.160156 334.253906 C 309.253906 325.933594 337.839844 295.382812 342.445312 280.816406 C 347.375 265.261719 360.90625 258.707031 367.144531 228.097656 C 367.4375 226.671875 367.671875 227.71875 367.671875 224.726562 C 365.96875 222.683594 349.234375 223.769531 347.464844 222.46875 C 347.378906 222.40625 331.726562 222.347656 329.359375 221.949219 C 326.769531 221.511719 324.363281 222.273438 320.5625 221.460938 C 319.898438 221.324219 310.824219 221.242188 308.644531 220.972656 C 305.792969 220.617188 301.796875 219.847656 298.941406 219.847656 C 300.03125 219.132812 306.296875 219.363281 308.566406 218.902344 C 312.457031 218.113281 323.34375 218.675781 326.421875 217.316406 C 326.476562 217.292969 338.898438 217.183594 341.78125 216.34375 C 350.703125 213.730469 362.234375 217.492188 366.21875 212.386719 C 367.011719 211.367188 367.972656 211.285156 368.039062 209.320312 C 368.101562 207.417969 368.128906 205.519531 368.613281 203.519531 C 369.222656 201.019531 369.011719 184.066406 369.011719 179.964844 C 368.777344 179.148438 365.113281 154.386719 365.113281 153.324219 C 365.113281 153.039062 364.722656 150.71875 364.214844 148.058594 C 363.046875 141.980469 361.121094 141.648438 359.640625 141.210938 C 358.496094 140.875 358.398438 139.867188 354.207031 139.953125 C 346.476562 140.097656 335.753906 139.890625 334.148438 139.273438 C 331.339844 138.179688 312.195312 139.367188 309.050781 138.296875 C 308.519531 138.113281 296.90625 137.5 294.425781 137.40625 C 301.074219 136.191406 304.402344 136.613281 306.683594 135.976562 C 306.855469 135.929688 311.359375 135.9375 315.628906 135.554688 C 320.355469 135.144531 324.925781 134.339844 325.972656 134.300781 C 331.21875 134.082031 337.210938 133.957031 338.679688 133.324219 C 340.996094 132.324219 357.144531 134.5625 359.261719 133.382812 C 357.8125 128.726562 357.152344 130.8125 356.214844 125.539062 C 355.066406 119.078125 349.261719 114.933594 347.410156 106.699219 C 346.988281 104.824219 345.660156 103.46875 345.609375 102.652344 C 341.757812 100.59375 342.382812 95.402344 338.855469 91.921875 C 334.117188 87.261719 322.976562 67.089844 316.507812 64.9375 C 315.222656 61.5625 305.988281 56.460938 298.550781 52.359375 C 294.890625 50.351562 293.25 48.089844 291.625 46.886719 C 289.796875 45.535156 286.257812 43.515625 284.285156 42.222656 C 283 41.390625 281.78125 40.339844 276.953125 40.289062 C 259.515625 40.109375 219.480469 41.195312 213.503906 41.195312 C 219.691406 39.890625 244.617188 36.984375 252.4375 35.875 C 259.714844 34.832031 268.695312 33.878906 269.8125 33.878906 C 269.976562 33.945312 258.078125 27.804688 252.714844 26.339844 C 249.488281 25.457031 244.628906 23.699219 239.628906 22.171875 C 232.890625 20.109375 225.789062 18.851562 222.039062 18.996094 C 221.132812 19.03125 212.589844 17.632812 209.121094 17.777344 C 201.117188 18.121094 193.710938 15.898438 186.546875 16.257812 C 179.835938 16.601562 173.359375 19.53125 165.921875 19.957031 C 162.957031 20.117188 155.296875 22.574219 152.085938 22.898438 C 142.390625 26.578125 134.746094 24.367188 123.207031 34.773438 C 121.816406 36.035156 103.738281 42.808594 95.296875 50.261719 C 89.878906 55.039062 77.996094 61.285156 73.972656 67.332031 C 70.875 71.988281 63.480469 74.695312 58.082031 83.300781 C 57.953125 83.511719 56.613281 84.925781 54.839844 86.828125 C 52.347656 89.503906 50.203125 93.097656 49.625 96.75 C 49.269531 98.964844 48.160156 101.445312 55.621094 101.792969 C 58.726562 101.933594 63.246094 103.019531 66.554688 103.019531 C 72.066406 103.019531 78.363281 104.238281 84.253906 104.238281 C 91.40625 104.238281 99.449219 104.722656 106.550781 104.722656 C 107.582031 104.722656 109.558594 105.273438 110.894531 105.273438 C 110.222656 105.234375 109.394531 105.792969 107.425781 106.160156 C 104.128906 106.769531 91.488281 107.777344 88.097656 107.777344 C 86.046875 107.777344 74.785156 107.960938 73.359375 108.597656 C 71.121094 109.605469 55.144531 108.484375 50.113281 109.804688 C 49 110.105469 43.398438 110.703125 42.164062 110.703125 C 40.609375 111.179688 34.363281 121.59375 34.128906 124.695312 C 33.988281 126.550781 29.066406 136.890625 28.269531 139.964844 C 26.246094 144.316406 20.960938 169.617188 20.960938 173.988281 C 20.667969 175.429688 20.804688 175.640625 22.117188 175.640625 C 24.628906 175.640625 26.046875 175.800781 28.441406 175.945312 C 28.441406 175.945312 28.617188 175.9375 28.636719 175.9375 C 30.558594 175.9375 31.164062 175.96875 32.988281 176.175781 C 35.78125 176.480469 37.03125 176.792969 40.070312 176.792969 C 44.757812 176.792969 49.382812 177.015625 54.0625 177.097656 C 56.667969 177.144531 59.925781 177.953125 61.964844 177.953125 C 68.777344 177.496094 87.90625 176.355469 93.832031 177.53125 C 97.726562 178.300781 123.5625 180.828125 125.765625 179.542969 C 121.886719 184.394531 61.8125 180.191406 55.410156 183.265625 C 52.011719 184.894531 36.660156 185.164062 30.730469 186.148438 C 29.234375 186.394531 22.308594 185.699219 21.203125 186.613281 C 21.199219 191.359375 20.839844 195.867188 20.839844 200.894531 C 20.839844 202.226562 21.8125 202.8125 21.8125 206.617188 C 21.8125 209.910156 22.929688 212.421875 22.789062 216.585938 C 22.761719 217.238281 23.359375 220.023438 23.761719 220.515625 C 24.597656 220.972656 23.882812 225.121094 23.882812 226.296875 C 23.882812 231.292969 29.570312 243.328125 29.488281 244.292969 C 33.109375 244.589844 35.816406 246.714844 40.859375 246.613281 C 42.441406 246.578125 47.445312 247.34375 50.246094 247.34375 C 54.527344 247.34375 69.945312 246.898438 72.753906 247.21875 C 68.632812 251.15625 53.714844 250.09375 46.410156 251.667969 C 42.835938 252.441406 35.757812 253.195312 32.054688 253.195312 C 41.007812 282.328125 51.617188 281.328125 57.085938 294.15625 C 58.9375 298.527344 73.074219 316.664062 76.902344 319.289062 C 80.230469 323.449219 100.03125 338.882812 105.847656 341.359375 L 286.015625 341.359375 " fill-opacity="1" fill-rule="evenodd"/></g><g clip-path="url(#95624de25e)"><path fill="#fefefe" d="M 233.117188 95.363281 C 232.753906 97.003906 232.257812 98.625 231.640625 100.171875 C 232.390625 100.082031 233.144531 100.023438 233.898438 100.007812 C 234.046875 99.132812 234.171875 98.25 234.285156 97.367188 C 234.394531 96.503906 234.441406 95.652344 234.472656 94.8125 C 234.019531 95 233.570312 95.183594 233.117188 95.363281 Z M 213.441406 54.714844 C 218.988281 57.609375 224.074219 60.617188 228.910156 63.875 C 230.421875 62.339844 232.714844 61.632812 234.832031 61.9375 C 236.910156 60.886719 238.957031 60.671875 241.425781 61.605469 C 243.464844 61.261719 245.074219 61.527344 246.578125 62.800781 C 247.921875 62.960938 249.03125 63.261719 250.0625 63.890625 C 250.902344 62.492188 252.113281 61.378906 253.890625 60.941406 C 255.566406 60.527344 257.316406 60.816406 258.757812 61.589844 C 259.460938 61.476562 260.167969 61.476562 260.847656 61.601562 C 262.019531 61.820312 263.167969 62.402344 264.117188 63.199219 C 265.65625 63.480469 267.132812 64.292969 268.203125 65.496094 C 269.359375 65.859375 270.417969 66.492188 271.308594 67.417969 C 272.265625 68.410156 272.875 69.527344 273.25 70.714844 C 274.957031 70.882812 276.65625 71.027344 278.347656 71.136719 C 279.210938 71.195312 280.0625 71.257812 280.910156 71.402344 C 284.621094 72.03125 287.628906 74.320312 287.632812 78.386719 C 287.632812 78.71875 287.628906 79.050781 287.613281 79.386719 C 287.5625 80.402344 287.453125 81.417969 287.3125 82.417969 C 286.699219 86.832031 284.039062 89.144531 279.492188 88.871094 C 277.140625 88.738281 274.785156 88.5625 272.425781 88.371094 C 272.101562 89.296875 271.664062 90.199219 271.066406 91.0625 C 270.675781 92.699219 271.351562 97.554688 271.578125 99.097656 C 272.386719 104.703125 272.710938 111.019531 270.996094 116.496094 C 269.75 120.480469 267.464844 123.75 263.910156 125.964844 C 260.964844 127.804688 257.664062 129.304688 254.355469 130.339844 L 253.890625 130.484375 C 250.433594 133.820312 246.03125 135.769531 241.449219 137.070312 C 239.519531 137.621094 237.589844 138.046875 235.613281 138.371094 C 234.414062 138.570312 233.179688 138.714844 231.984375 138.972656 C 231.515625 139.066406 231.050781 139.1875 230.59375 139.347656 C 229.113281 139.851562 227.425781 140.960938 226.125 141.828125 C 225.761719 142.066406 225.394531 142.320312 225.003906 142.585938 C 224.777344 144.1875 224.199219 145.84375 223.351562 147.289062 C 223.609375 149.523438 223.203125 152.097656 222.304688 154.261719 C 223.71875 156.402344 224.542969 158.828125 225.199219 161.304688 C 225.382812 162 225.554688 162.742188 225.726562 163.503906 C 229.734375 163.199219 234.070312 165.4375 236.539062 168.597656 C 248.988281 164.402344 261.347656 159.96875 273.535156 155.277344 C 275.71875 154.4375 277.933594 153.8125 280.242188 154.636719 C 282.515625 155.457031 283.871094 157.328125 284.648438 159.527344 L 285.660156 162.386719 C 287.296875 167.035156 285.414062 170.492188 280.871094 172.125 C 267.425781 176.949219 253.917969 181.644531 240.351562 186.160156 C 246.25 190.945312 252.351562 195.425781 258.460938 199.949219 C 260.027344 201.121094 261.59375 202.546875 263.058594 203.851562 C 265.210938 205.785156 267.339844 207.761719 269.453125 209.75 C 271.582031 211.765625 273.699219 213.800781 275.773438 215.871094 C 277.164062 217.261719 278.761719 218.816406 279.96875 220.367188 C 280.777344 221.398438 281.621094 222.417969 282.460938 223.425781 C 283.144531 224.253906 283.921875 225.253906 284.679688 226.042969 C 291.867188 231.011719 296.53125 246.0625 296.527344 254.234375 C 296.589844 254.675781 297.011719 255.574219 297.199219 255.988281 C 297.777344 257.296875 298.351562 258.570312 298.800781 259.925781 C 300.207031 264.175781 300.03125 268.234375 297.878906 272.226562 C 297.28125 273.328125 296.941406 274.25 296.492188 275.390625 C 295.683594 277.472656 294.488281 279.140625 293.109375 280.867188 C 292.359375 282.453125 292.0625 283.617188 290.371094 284.792969 C 290.355469 284.796875 290.347656 284.8125 290.332031 284.816406 C 290.335938 285.652344 290.171875 286.527344 289.8125 287.398438 C 289.132812 289.027344 287.953125 290.816406 286.859375 292.207031 C 286.1875 293.054688 285.820312 293.789062 285.550781 294.84375 C 284.824219 297.652344 284.417969 300.546875 282.136719 302.613281 C 281.160156 303.492188 280.050781 304.027344 278.867188 304.304688 C 277.019531 307.933594 275.519531 310.9375 275.519531 315.558594 C 275.519531 316.496094 275.570312 317.28125 276.230469 317.96875 C 277.457031 319.257812 278.917969 320.144531 280.203125 321.601562 C 281.570312 323.15625 285.015625 325.890625 286.820312 326.914062 C 290.25 328.867188 291.40625 329.039062 295.195312 329.945312 C 297.523438 330.503906 299.742188 331.109375 301.488281 332.871094 C 304.039062 335.421875 304.117188 338.90625 303.480469 342.207031 C 304.304688 345.847656 302.066406 347.472656 298.863281 348.730469 C 295.46875 350.066406 289.226562 349.816406 285.429688 349.972656 C 282.390625 350.097656 279.421875 350.117188 276.394531 349.671875 C 271.9375 349.011719 268.515625 347.023438 265.015625 344.328125 C 264.796875 344.152344 264.484375 343.90625 264.136719 343.621094 C 263.203125 344.996094 261.621094 345.839844 259.703125 345.757812 L 251.648438 345.757812 L 251.417969 345.738281 C 245.402344 345.085938 243.949219 339.425781 244.699219 334.421875 C 244.8125 333.644531 245.050781 332.9375 245.398438 332.316406 C 245.121094 328.125 245.746094 324.710938 247.570312 320.507812 C 249.171875 316.828125 250.972656 312.871094 251.628906 308.890625 C 252.039062 306.398438 252.316406 302.738281 252.261719 300 C 247.714844 301.148438 243.148438 301.367188 238.582031 302.410156 C 237.167969 302.726562 236.128906 303.167969 234.839844 303.792969 C 231.070312 305.628906 228.121094 306.277344 223.917969 306.671875 C 217.761719 307.25 208.160156 308.417969 203.785156 303.148438 C 202.488281 301.578125 201.242188 299.921875 200.152344 298.199219 C 199.195312 296.679688 198.039062 293.921875 196.875 290.574219 C 194.371094 297.808594 190.964844 308.269531 183.777344 312.214844 C 178.03125 315.359375 168.140625 311.648438 162.714844 309.089844 C 158.089844 306.910156 152.140625 303.398438 148.933594 299.359375 C 148.707031 299.074219 148.457031 298.8125 148.191406 298.566406 C 146.042969 296.59375 141.769531 295.113281 139.082031 293.929688 C 135.078125 292.164062 131.601562 290.199219 128.402344 287.550781 L 125.15625 291.417969 C 123.847656 295.054688 120.09375 297.457031 117.164062 299.714844 C 115.925781 300.671875 114.515625 302.128906 113.378906 303.234375 C 112.347656 304.234375 110.929688 305.523438 109.988281 306.648438 C 108.339844 309.9375 107.246094 313.429688 105.183594 316.554688 C 104.015625 318.320312 103.859375 320.488281 103.449219 322.511719 C 103.039062 324.53125 101.917969 326.511719 100.738281 328.246094 C 100.753906 329.039062 100.863281 330.011719 100.898438 330.699219 C 101 332.640625 101 334.585938 100.699219 336.511719 C 99.511719 344.140625 94.097656 347.882812 86.457031 347.882812 C 80.335938 347.882812 72.390625 343.792969 72.390625 336.859375 C 72.390625 331.179688 76.546875 322.984375 78.667969 317.597656 C 80.15625 313.804688 82.164062 309.917969 84.058594 306.308594 C 85.914062 302.773438 87.871094 299.144531 90 295.761719 C 90.609375 294.796875 91.191406 293.796875 91.714844 292.789062 C 92.308594 291.648438 93.488281 289.222656 94.238281 287.335938 C 94.113281 287.15625 94 286.96875 93.886719 286.765625 C 90.96875 281.371094 96.648438 275.125 99.414062 270.925781 C 100.058594 269.941406 100.59375 268.949219 101.058594 267.929688 C 98.097656 266.472656 95.101562 265.003906 92.375 263.226562 C 89.527344 261.371094 87.039062 258.59375 88.046875 254.925781 C 88.859375 251.976562 91.464844 250.644531 94.167969 249.84375 C 94.871094 249.640625 95.78125 249.453125 96.445312 249.183594 C 99.890625 247.792969 103.207031 246.019531 106.519531 244.347656 C 108.453125 243.375 110.363281 241.875 112.117188 240.597656 C 114.703125 238.71875 117.273438 236.984375 120.171875 235.613281 C 121.671875 234.902344 123.4375 233.082031 124.582031 231.898438 C 126.792969 229.601562 128.886719 227.246094 131.222656 225.066406 C 134.800781 221.734375 139.527344 219.324219 142.609375 215.5625 C 142.84375 215.28125 143.082031 214.996094 143.316406 214.71875 C 134.523438 216.84375 125.707031 218.8125 116.863281 220.578125 C 108.414062 222.265625 99.914062 223.78125 91.378906 224.960938 C 84.375 225.933594 77.242188 226.714844 70.171875 226.941406 C 68.152344 227.011719 66.160156 226.148438 64.609375 224.894531 C 62.636719 223.292969 61.207031 220.871094 61.433594 218.265625 C 61.773438 214.242188 65.363281 212.347656 68.933594 211.75 C 101.5 206.320312 134.171875 198.582031 166.082031 189.886719 L 166.523438 189.300781 C 167.425781 186.15625 167.5625 182.765625 167.632812 179.519531 C 167.707031 176.007812 167.636719 171.953125 168.796875 168.617188 C 169.375 166.953125 170.328125 165.613281 171.578125 164.648438 C 171.277344 163.441406 170.933594 162.25 170.578125 161.058594 C 168.066406 152.722656 165.878906 146.222656 167.367188 137.441406 C 165.632812 127.53125 167.855469 118.050781 175.507812 111.113281 C 178.675781 108.246094 182.523438 106.417969 186.300781 104.523438 C 187.835938 103.757812 191.335938 101.773438 193.371094 100.214844 C 193.183594 99.203125 193.035156 98.160156 192.9375 97.113281 C 186.824219 95.535156 180.738281 93.214844 174.742188 90.253906 L 169.5 87.664062 L 173.492188 83.398438 C 176.070312 80.632812 178.851562 77.925781 181.757812 75.308594 C 158.207031 71 134.738281 66.144531 111.46875 60.574219 C 99.398438 57.691406 87.386719 54.515625 75.492188 50.988281 C 64.859375 47.839844 54.246094 44.410156 43.875 40.46875 C 36.007812 37.480469 27.734375 34.058594 20.449219 29.824219 C 16.046875 27.261719 9.824219 23.179688 8.265625 18.027344 L 5.632812 9.347656 L 14.039062 12.746094 C 29.679688 19.066406 45.820312 24.476562 61.945312 29.417969 C 80.359375 35.058594 98.992188 40.109375 117.691406 44.695312 C 144.507812 51.269531 171.96875 57.121094 199.359375 61.371094 C 202.613281 59.082031 205.894531 56.910156 209.136719 54.886719 L 211.246094 53.570312 L 213.441406 54.714844 " fill-opacity="1" fill-rule="evenodd"/></g><path fill="#000000" d="M 12.414062 16.769531 C 64.550781 37.84375 150.550781 59.136719 210.617188 67.402344 L 211.578125 61.847656 L 215.265625 62.480469 L 214.378906 67.609375 C 223.84375 68.925781 265.253906 74.621094 278.0625 75.46875 C 280.007812 75.597656 283.296875 75.742188 283.300781 78.390625 C 283.300781 78.648438 283.296875 78.914062 283.28125 79.175781 C 283.230469 80.140625 283.117188 81.136719 283.019531 81.816406 C 282.75 83.761719 282.214844 84.6875 279.753906 84.542969 C 259.652344 83.359375 232.625 79.242188 212.855469 76.460938 L 211.769531 82.742188 L 208.082031 82.101562 L 209.191406 75.683594 C 176.996094 70.335938 144.199219 63.949219 112.476562 56.359375 C 63.644531 44.675781 15.835938 28.054688 12.414062 16.769531 " fill-opacity="1" fill-rule="evenodd"/><path fill="#000000" d="M 280.5625 160.972656 L 281.570312 163.832031 C 282.382812 166.125 281.78125 167.1875 279.40625 168.039062 C 244.699219 180.5 208.90625 192.25 173.492188 202.28125 C 134.183594 213.417969 94.011719 221.816406 70.03125 222.609375 C 67.132812 222.707031 62.234375 217.265625 69.640625 216.03125 C 132.136719 205.617188 216.09375 182.050781 275.09375 159.324219 C 277.785156 158.292969 279.492188 157.957031 280.5625 160.972656 " fill-opacity="1" fill-rule="evenodd"/><path fill="#000000" d="M 221.726562 74.460938 C 232.289062 79.972656 231.566406 97.804688 222.320312 106.609375 C 224.019531 106.605469 231.667969 103.703125 235.773438 104.480469 C 235.835938 107.019531 235.417969 109.585938 234.851562 111.839844 C 236.988281 107.304688 238.007812 102.539062 238.585938 97.902344 C 239.035156 94.289062 238.460938 91.183594 239.191406 87.347656 C 236.347656 86.652344 230.050781 85.277344 229.710938 79.546875 C 229.875 79.261719 230.351562 76.925781 230.339844 76.636719 C 230.316406 75.800781 230.527344 69.921875 231.695312 67.355469 C 232.183594 66.285156 234.375 65.679688 235.246094 66.777344 C 237.042969 65.464844 238.144531 64.847656 240.390625 65.871094 C 241.917969 66.566406 242.742188 64.734375 244.34375 66.710938 C 245.015625 67.542969 246.90625 66.203125 248.945312 68.65625 C 249.386719 69.1875 249.875 71.9375 249.875 72.660156 C 250.410156 73.480469 250.695312 76.03125 250.695312 78.542969 C 251.007812 75.511719 252.179688 72.6875 252.691406 69.601562 C 253.023438 67.652344 253.621094 65.476562 254.933594 65.152344 C 256.605469 64.742188 257.855469 66.097656 257.660156 66.992188 C 257.828125 66.6875 258.898438 65.652344 260.042969 65.867188 C 261.324219 66.105469 262.199219 67.359375 262.019531 67.828125 C 262.628906 67.0625 265.230469 67.5 265.445312 69.425781 C 270.894531 69.371094 269.308594 76.757812 269.160156 80.53125 C 269.054688 83.203125 269.046875 86.59375 267.273438 88.914062 C 266.207031 90.753906 266.660156 95.398438 267.285156 99.71875 C 268.253906 106.414062 268.042969 111.417969 266.859375 115.199219 C 265.839844 118.445312 264.089844 120.746094 261.617188 122.28125 C 259.152344 123.820312 256.152344 125.230469 253.058594 126.199219 C 253.59375 122.5 253.257812 119.125 253.257812 119.125 C 253.101562 122.359375 252.347656 125.925781 250.988281 127.253906 C 248.09375 130.097656 244.277344 131.761719 240.269531 132.894531 C 234.703125 134.476562 232.28125 134.1875 229.195312 135.234375 C 224.898438 136.695312 219.445312 141.75 216.492188 142.578125 C 217.328125 142.714844 219.546875 142.363281 220.75 141.691406 C 220.671875 142.460938 220.195312 144.832031 218.632812 146.382812 C 219.585938 147.8125 218.921875 153.257812 216.941406 154.65625 C 221.121094 158.226562 221.105469 165.097656 223.035156 169.578125 C 225.109375 166.070312 231.578125 168.289062 233.699219 172.144531 C 236.632812 177.484375 234.894531 179.964844 236.300781 188.457031 C 242.667969 193.699219 248.09375 197.664062 255.875 203.4375 C 259.289062 205.964844 274.03125 219.808594 276.554688 223.039062 C 277.445312 224.175781 281.1875 228.753906 281.917969 229.417969 C 287.707031 233.007812 292.199219 247.035156 292.199219 254.328125 C 292.199219 257.761719 297.851562 263.144531 294.0625 270.167969 C 291.921875 274.132812 293.140625 273.90625 289.535156 278.390625 C 289.0625 278.976562 288.757812 280.632812 287.898438 281.226562 C 285.167969 283.121094 280.582031 283.820312 280.578125 283.816406 C 283.160156 283.648438 284.109375 283.65625 284.65625 283.691406 C 285.902344 283.777344 286.273438 284.597656 285.804688 285.738281 C 285.210938 287.167969 283.925781 288.921875 283.457031 289.515625 C 282.710938 290.457031 281.882812 291.691406 281.347656 293.761719 C 280.335938 297.683594 280.199219 300.539062 276.09375 300.164062 C 273.949219 304.546875 271.183594 308.71875 271.183594 315.558594 C 271.183594 321.054688 274.332031 321.496094 276.949219 324.464844 C 278.589844 326.335938 282.691406 329.566406 284.683594 330.691406 C 288.855469 333.054688 289.738281 333.101562 294.183594 334.164062 C 297.96875 335.074219 300.546875 335.8125 299.050781 342.160156 C 299.132812 343.695312 300.25 343.527344 297.273438 344.695312 C 294.925781 345.621094 288.347656 345.507812 285.25 345.636719 C 282.53125 345.75 279.859375 345.796875 277.027344 345.375 C 269.109375 344.207031 265.410156 337.476562 260.734375 336.675781 C 260.734375 336.707031 260.734375 339.035156 260.734375 340.441406 C 260.734375 341.066406 260.554688 341.476562 259.824219 341.417969 L 251.878906 341.417969 C 248.484375 341.054688 248.683594 337.085938 248.984375 335.066406 C 249.148438 333.964844 249.589844 334.261719 249.941406 334.160156 C 249.328125 329.550781 249.691406 326.519531 251.546875 322.238281 C 253.292969 318.230469 255.179688 314.003906 255.910156 309.59375 C 256.285156 307.296875 256.710938 301.878906 256.566406 298.957031 C 256.414062 295.996094 253.9375 295.085938 251.359375 295.753906 C 246.277344 297.0625 243.492188 296.84375 237.621094 298.179688 C 232.089844 299.433594 232.398438 301.519531 223.515625 302.347656 C 217.402344 302.921875 209.84375 303.652344 207.125 300.378906 C 206.132812 299.179688 204.890625 297.574219 203.820312 295.882812 C 200.179688 290.113281 194.726562 267.800781 194.996094 263.125 C 194.269531 266.414062 195.011719 274.5 196.253906 280.785156 C 191.65625 289.5625 191.851562 295.027344 187.414062 302.097656 C 185.300781 305.464844 183.492188 307.417969 181.6875 308.410156 C 175.972656 311.542969 157.535156 303.21875 152.324219 296.65625 C 147.496094 290.578125 137.273438 291.171875 128.039062 281.25 L 121.238281 289.332031 C 120.789062 291.921875 117.140625 294.261719 114.523438 296.277344 C 113.191406 297.296875 106.679688 303.597656 106.292969 304.347656 C 104.953125 306.964844 103.347656 311.464844 101.5625 314.164062 C 99.90625 316.679688 99.765625 318.851562 99.199219 321.644531 C 98.980469 322.730469 98.296875 324.21875 96.632812 326.558594 C 95.351562 328.355469 100.773438 343.546875 86.457031 343.546875 C 82.433594 343.546875 76.726562 340.90625 76.726562 336.859375 C 76.726562 332.511719 80.15625 325.675781 82.699219 319.179688 C 84.714844 314.058594 90.621094 302.914062 93.667969 298.078125 C 94.324219 297.039062 94.984375 295.894531 95.5625 294.789062 C 96.332031 293.308594 99.789062 285.972656 99.046875 285.726562 C 94.261719 284.167969 101.574219 275.53125 103.039062 273.316406 C 104.425781 271.199219 105.363281 269.1875 106.53125 265.824219 C 102.234375 263.589844 98.046875 261.746094 94.742188 259.589844 C 92.359375 258.039062 91.988281 256.945312 92.230469 256.074219 C 92.722656 254.289062 96.367188 253.898438 98.074219 253.210938 C 101.515625 251.816406 104.933594 250.007812 108.46875 248.222656 C 112.519531 246.183594 116.425781 242.183594 122.023438 239.539062 C 125.765625 237.769531 129.363281 232.738281 134.179688 228.242188 C 137.753906 224.90625 142.464844 222.585938 145.964844 218.316406 C 152.40625 210.464844 164.949219 198.910156 170.453125 191.269531 C 172.957031 183.542969 171.167969 174.988281 172.886719 170.042969 C 173.554688 168.144531 174.9375 167.394531 176.546875 167.273438 C 174.988281 157.441406 169.5 149.226562 171.773438 137.429688 C 169.945312 128.152344 172.042969 120.109375 178.421875 114.328125 C 181.160156 111.84375 184.75 110.15625 188.246094 108.402344 C 192.046875 106.5 197.042969 103.238281 198.160156 101.589844 C 197.648438 99.957031 196.386719 95.882812 196.371094 91.9375 C 195.535156 90.296875 195.589844 86.441406 196.320312 84.699219 C 196.679688 83.824219 197.480469 83.582031 198.179688 83.765625 C 199.152344 80.511719 200.851562 77.605469 203.664062 75.828125 C 205.90625 74.402344 208.796875 73.597656 212.464844 73.597656 C 212.355469 69.132812 212.570312 65.152344 217.261719 68.835938 C 218.738281 69.996094 222.082031 66.011719 222.859375 70.007812 C 223.164062 71.5625 222.753906 73.226562 221.726562 74.460938 Z M 252.816406 101.738281 C 252.019531 97.054688 250.863281 91.859375 250.269531 88.121094 C 249.882812 85.734375 250.042969 83.753906 250.070312 83.691406 C 250.347656 83.007812 250.535156 81.867188 250.625 80.566406 C 250.660156 81.390625 250.773438 82.242188 251 83.121094 C 251.792969 86.226562 255.382812 85.90625 256.78125 89.351562 C 256.726562 95.410156 256.175781 98.980469 252.816406 101.738281 " fill-opacity="1" fill-rule="evenodd"/><path fill="#000000" d="M 176.65625 86.359375 C 200.675781 98.21875 225.007812 98.273438 245.925781 83.183594 C 234.441406 72.292969 224.425781 65.347656 211.4375 58.566406 C 199.316406 66.140625 186.222656 76.132812 176.65625 86.359375 " fill-opacity="1" fill-rule="evenodd"/><g clip-path="url(#d09ced9835)"><path fill="#000000" d="M 14.691406 355.222656 C 31.671875 351.246094 67.964844 339.601562 87.03125 337.101562 C 92.09375 336.4375 106.222656 335.019531 118.246094 333.609375 C 132.242188 331.964844 144.988281 331.152344 159.136719 331.046875 C 177.902344 330.90625 199.421875 332.464844 218.183594 332.796875 C 244.734375 333.253906 273.726562 335.621094 297.253906 338.867188 C 313.378906 341.089844 334.777344 345.925781 348.914062 350.742188 C 349.019531 351.003906 332.191406 348.296875 316.445312 347.957031 C 308.242188 347.777344 280.007812 344.679688 286.214844 351.792969 C 289.46875 355.511719 294.109375 360.3125 286.582031 359.472656 C 262.335938 356.765625 264.78125 352.683594 245.503906 348.136719 C 232.953125 345.179688 215.597656 342.335938 230.46875 352.378906 C 236.023438 356.121094 224.519531 364.429688 204.554688 354.085938 C 198.878906 351.148438 169.773438 343.230469 180.214844 352.628906 C 184.625 356.59375 174.152344 364.78125 164.882812 354.15625 C 159.628906 348.136719 149.488281 349.035156 141.875 348.714844 C 135.808594 348.464844 129.96875 349.511719 124.316406 350.796875 C 115.3125 352.847656 110.492188 359.933594 100.273438 362.949219 C 92.160156 365.347656 84.898438 367.207031 82.066406 363.554688 C 80.429688 361.449219 75.679688 355.53125 84.910156 351.886719 C 90.128906 349.828125 82.792969 348.84375 80.277344 348.992188 C 73.101562 349.425781 62.542969 350.453125 53.335938 351.410156 C 40.46875 352.761719 27.359375 354.941406 14.691406 355.222656 " fill-opacity="1" fill-rule="evenodd"/></g></svg>