<svg xmlns="http://www.w3.org/2000/svg" xmlns:xlink="http://www.w3.org/1999/xlink" width="500" zoomAndPan="magnify" viewBox="0 0 375 374.999991" height="500" preserveAspectRatio="xMidYMid meet" version="1.0"><defs><clipPath id="c14720c763"><path d="M 18 0 L 357.476562 0 L 357.476562 368 L 18 368 Z M 18 0 " clip-rule="nonzero"/></clipPath></defs><path fill="#f3eff9" d="M 116.007812 210.433594 C 124.441406 207.578125 142.476562 205.964844 148.339844 205.011719 C 174.589844 213.21875 235.515625 190.066406 235.515625 190.066406 C 248.492188 192.921875 271.804688 196.21875 292.554688 209.480469 C 319.316406 226.625 334.566406 270.664062 334.566406 270.664062 C 347.6875 314.113281 356.265625 338.730469 356.265625 338.730469 C 356.265625 338.730469 285.222656 375 182.359375 365.769531 C 49.144531 351.699219 18.863281 302.316406 18.863281 302.316406 C 18.277344 303.925781 116.007812 210.433594 116.007812 210.433594 Z M 116.007812 210.433594 " fill-opacity="1" fill-rule="nonzero"/><path fill="#472726" d="M 18.863281 302.316406 C 18.277344 303.925781 116.007812 210.433594 116.007812 210.433594 C 124.441406 207.578125 142.476562 205.964844 148.339844 205.011719 C 174.589844 213.21875 235.515625 190.066406 235.515625 190.066406 C 248.492188 192.921875 271.804688 196.21875 292.554688 209.480469 C 319.316406 226.625 334.566406 270.664062 334.566406 270.664062 C 347.6875 314.113281 356.265625 338.730469 356.265625 338.730469 C 356.265625 338.730469 320.929688 356.753906 264.109375 364.15625 L 268.800781 302.609375 C 279.210938 295.0625 296.148438 268.097656 308.683594 265.972656 C 308.683594 265.972656 303.992188 240.476562 292.847656 227.945312 C 281.703125 215.417969 257.289062 203.546875 243.285156 200.980469 C 233.609375 211.386719 213.078125 246.628906 175.6875 243.332031 C 138.296875 240.109375 139.03125 214.609375 139.03125 214.609375 C 139.03125 214.609375 124.074219 228.09375 111.242188 244.578125 C 98.191406 248.167969 86.828125 257.328125 80.230469 269.125 C 78.324219 272.492188 76.785156 276.085938 76.269531 279.894531 C 75.316406 286.855469 77.882812 293.667969 78.984375 300.628906 C 80.671875 299.96875 82.355469 300.703125 84.042969 300.042969 C 77.003906 320.195312 71.433594 339.097656 71.433594 339.171875 C 30.59375 321.367188 18.863281 302.316406 18.863281 302.316406 Z M 18.863281 302.316406 " fill-opacity="1" fill-rule="nonzero"/><path fill="#8c5d58" d="M 73.046875 99.0625 C 73.046875 99.0625 78.03125 93.566406 79.644531 82.210938 C 79.644531 82.210938 79.058594 73.34375 86.609375 59.277344 C 86.609375 59.277344 85.289062 50.484375 92.839844 42.71875 C 92.839844 42.71875 88.148438 43.667969 86.023438 42.71875 C 92.839844 38.980469 97.679688 29.675781 107.285156 25.644531 C 107.285156 25.644531 101.273438 23.667969 97.238281 25.058594 C 107.136719 17.21875 125.6875 16.632812 130.964844 17.21875 C 123.488281 13.921875 122.972656 8.867188 122.972656 8.867188 C 122.972656 8.867188 130.890625 12.894531 138.957031 14.433594 C 138.957031 14.433594 134.339844 10.039062 132.136719 6.226562 C 140.714844 9.964844 153.695312 7.621094 165.203125 12.234375 C 165.203125 12.234375 162.785156 4.835938 158.460938 2.417969 C 158.460938 2.417969 169.96875 5.570312 175.175781 12.75 C 174.441406 9.523438 166.964844 1.683594 166.964844 1.683594 C 166.964844 1.683594 189.984375 4.980469 195.042969 25.132812 C 199.003906 16.558594 191.085938 5.128906 191.085938 5.128906 C 191.085938 5.128906 206.847656 13.261719 202.59375 28.503906 C 209.632812 25.425781 213.371094 18.539062 213.371094 18.539062 C 213.371094 18.539062 213.886719 28.429688 208.3125 32.3125 C 232.363281 41.691406 237.789062 72.464844 232.363281 90.488281 C 233.902344 104.921875 227.082031 109.6875 227.082031 109.6875 C 227.082031 109.6875 225.105469 120.089844 220.925781 125.292969 L 111.683594 129.101562 L 107.210938 124.558594 C 104.058594 126.90625 99.734375 128.957031 93.867188 129.324219 C 91.742188 130.054688 91.59375 133.425781 91.59375 133.425781 C 91.59375 133.425781 90.128906 125.878906 91.59375 117.011719 C 89.25 123.609375 88.296875 125.511719 88.296875 125.511719 C 88.296875 125.511719 85.363281 119.871094 84.777344 113.789062 C 84.777344 113.789062 83.53125 118.039062 83.53125 120.089844 C 83.53125 120.089844 75.316406 112.910156 78.984375 95.910156 C 77.738281 98.988281 73.046875 99.0625 73.046875 99.0625 Z M 73.046875 99.0625 " fill-opacity="1" fill-rule="nonzero"/><path fill="#f2aea2" d="M 153.988281 203.105469 C 157.945312 199.808594 157.285156 187.207031 157.285156 187.207031 C 157.285156 187.207031 155.378906 187.648438 151.640625 187.207031 C 144.675781 186.328125 120.921875 168.449219 118.0625 161.195312 C 115.277344 153.941406 110.804688 134.011719 109.117188 129.101562 L 106.84375 125 C 111.976562 121.335938 114.03125 116.792969 114.03125 116.792969 C 113.957031 122.214844 109.996094 125.585938 109.996094 125.585938 C 126.714844 123.679688 131.773438 109.6875 131.773438 109.6875 C 133.089844 114.007812 128.324219 121.921875 128.324219 121.921875 C 128.324219 121.921875 130.011719 122.582031 137.199219 120.089844 C 144.457031 117.601562 150.101562 104.996094 150.101562 104.996094 C 150.101562 104.996094 150.761719 111.957031 145.042969 118.992188 C 156.113281 116.574219 162.785156 100.96875 162.785156 100.96875 C 162.785156 100.96875 164.105469 106.023438 159.414062 115.621094 C 172.683594 112.03125 176.273438 98.988281 176.273438 98.988281 C 176.273438 98.988281 177.519531 104.628906 175.101562 109.980469 C 185.734375 105.804688 186.097656 93.347656 186.097656 93.347656 C 186.097656 93.347656 196.875 118.550781 204.5 114.667969 C 208.460938 112.765625 216.671875 113.058594 219.457031 119.136719 C 222.246094 125.21875 221.585938 135.550781 212.199219 143.539062 C 210.292969 159.21875 219.238281 182.882812 227.011719 187.351562 C 229.136719 189.039062 235.441406 189.992188 235.441406 189.992188 C 224.152344 197.683594 217.257812 226.773438 186.171875 229.628906 C 155.085938 232.488281 145.773438 212.117188 148.339844 204.863281 C 148.414062 204.9375 151.714844 204.644531 153.988281 203.105469 Z M 153.988281 203.105469 " fill-opacity="1" fill-rule="nonzero"/><path fill="#f3eff9" d="M 63.515625 211.753906 L 119.527344 216.953125 L 118.867188 223.402344 L 115.054688 223.035156 L 101.933594 299.3125 C 80.082031 302.976562 65.859375 295.722656 65.859375 295.722656 L 63.734375 218.273438 L 60.433594 217.980469 L 61.09375 211.53125 L 63.515625 211.753906 C 65.199219 200.101562 75.246094 189.039062 91.15625 190.429688 C 114.03125 192.410156 116.523438 209.847656 116.667969 216.515625 Z M 184.191406 117.964844 C 182.140625 115.769531 170.410156 117.964844 167.402344 118.550781 C 166.15625 118.773438 165.058594 119.359375 163.957031 120.089844 C 160.144531 122.582031 154.941406 126.464844 155.820312 130.933594 C 156.773438 135.917969 160.660156 140.09375 163.152344 141.484375 C 170.628906 142.511719 178.109375 140.605469 182.582031 137.457031 C 182.652344 137.675781 182.726562 137.015625 182.726562 136.796875 C 182.800781 134.160156 184.925781 129.835938 185.074219 127.199219 C 185.292969 124.339844 185 118.625 184.191406 117.964844 Z M 135.730469 131.886719 C 135.730469 131.886719 128.839844 125.511719 120.261719 124.707031 C 111.757812 123.902344 108.675781 130.421875 108.675781 130.421875 C 108.675781 130.421875 113.222656 138.847656 113.957031 140.535156 C 114.6875 142.21875 119.308594 146.394531 119.308594 146.394531 C 119.308594 146.394531 129.351562 147.128906 134.410156 145.222656 C 139.46875 143.316406 136.683594 132.546875 135.730469 131.886719 Z M 135.730469 131.886719 " fill-opacity="1" fill-rule="nonzero"/><path fill="#8c5d58" d="M 107.871094 242.527344 C 108.015625 242.671875 108.015625 242.964844 107.871094 243.113281 C 106.699219 244.578125 101.199219 251.390625 96.945312 253.808594 C 92.109375 256.519531 66.152344 244.945312 67.839844 240.402344 C 69.527344 235.859375 78.835938 234.6875 83.308594 236.589844 C 87.855469 238.421875 93.792969 238.570312 96.875 238.277344 C 99.878906 237.835938 104.570312 238.058594 107.871094 242.527344 Z M 302.671875 340.488281 C 305.824219 327.886719 305.679688 314.550781 302.230469 302.023438 C 302.230469 302.023438 303.40625 314.917969 303.480469 321.21875 C 303.550781 327.519531 302.671875 340.488281 302.671875 340.488281 Z M 302.671875 340.488281 " fill-opacity="1" fill-rule="nonzero"/><path fill="#f2aea2" d="M 79.128906 95.910156 C 75.464844 112.984375 83.675781 120.089844 83.675781 120.089844 C 83.675781 119.429688 83.824219 118.480469 84.042969 117.527344 C 83.015625 112.105469 80.449219 92.246094 93.792969 75.617188 C 94.160156 75.761719 94.527344 75.910156 94.820312 76.054688 C 95.1875 76.203125 95.773438 76.714844 95.625 77.082031 C 99.660156 69.460938 105.816406 63.011719 113.222656 58.691406 C 110.875 58.761719 108.675781 60.15625 106.550781 59.203125 C 104.058594 58.105469 104.203125 53.78125 101.566406 53.046875 C 100.613281 52.753906 99.585938 53.121094 98.632812 53.046875 C 98.121094 52.976562 97.53125 52.753906 97.238281 52.316406 C 100.757812 47.917969 105.230469 43.230469 108.675781 42.128906 C 108.675781 42.128906 100.246094 44.695312 97.679688 46.234375 C 100.539062 43.523438 111.535156 33.117188 123.046875 30.1875 C 123.046875 30.1875 115.054688 27.257812 110.289062 29.015625 C 110.289062 29.015625 122.535156 23.8125 135.730469 25.425781 C 135.730469 25.425781 132.945312 22.273438 129.425781 21.394531 C 129.425781 21.394531 141.667969 22.054688 147.976562 26.15625 L 141.449219 18.316406 C 141.449219 18.316406 160.144531 20.734375 164.105469 24.617188 C 164.105469 24.617188 157.652344 16.632812 151.933594 13.773438 C 151.933594 13.773438 166.15625 13.261719 177.667969 21.394531 C 177.667969 21.394531 177.886719 17.292969 175.175781 12.457031 C 169.894531 5.277344 158.460938 2.125 158.460938 2.125 C 162.785156 4.542969 165.203125 11.941406 165.203125 11.941406 C 153.695312 7.328125 140.644531 9.671875 132.136719 5.933594 C 134.410156 9.746094 138.957031 14.140625 138.957031 14.140625 C 130.820312 12.675781 122.972656 8.574219 122.972656 8.574219 C 122.972656 8.574219 123.488281 13.628906 130.964844 17 C 125.6875 16.414062 107.0625 16.925781 97.238281 24.839844 C 101.273438 23.445312 107.285156 25.425781 107.285156 25.425781 C 97.753906 29.453125 92.914062 38.761719 86.023438 42.496094 C 88.222656 43.449219 92.839844 42.496094 92.839844 42.496094 C 85.289062 50.335938 86.609375 59.054688 86.609375 59.054688 C 78.984375 73.125 79.644531 81.988281 79.644531 81.988281 C 78.03125 93.347656 73.046875 98.84375 73.046875 98.84375 C 73.046875 98.84375 77.738281 98.988281 79.128906 95.910156 Z M 88.074219 74.515625 C 88.734375 74.882812 89.394531 75.175781 90.128906 75.25 C 91.007812 75.324219 91.886719 75.25 92.769531 75.324219 C 92.839844 75.324219 92.988281 75.394531 93.0625 75.394531 L 84.777344 81.402344 C 84.777344 81.402344 86.023438 78.398438 88.074219 74.515625 Z M 173.78125 9.816406 C 171.363281 6.226562 167.035156 1.683594 167.035156 1.683594 C 167.035156 1.683594 167.625 1.757812 168.578125 1.976562 C 171.144531 4.6875 172.683594 7.546875 173.78125 9.816406 Z M 96.507812 243.257812 C 96.433594 243.257812 96.285156 243.257812 96.214844 243.257812 C 92.769531 243.039062 87.195312 243.113281 82.429688 243.257812 C 78.324219 240.769531 74.804688 237.398438 67.839844 240.402344 L 67.914062 244.578125 C 66.082031 244.945312 64.6875 245.3125 64.6875 245.3125 L 64.6875 240.402344 C 64.6875 240.402344 73.117188 236.371094 81.035156 235.566406 C 90.566406 234.613281 91.375 230.511719 91.375 228.605469 C 91.375 226.699219 89.761719 225.675781 82.0625 226.261719 C 78.542969 226.554688 66.886719 228.75 60.65625 230.730469 C 54.421875 232.707031 49.804688 237.910156 47.238281 240.476562 C 44.746094 242.964844 43.132812 246.703125 42.984375 250.804688 C 42.472656 251.90625 39.90625 257.621094 36.460938 265.460938 C 31.695312 276.011719 21.945312 293.449219 18.9375 302.460938 C 30.230469 318.726562 56.402344 331.988281 56.402344 331.988281 C 56.402344 331.988281 60.582031 299.3125 60.65625 293.523438 C 64.46875 292.277344 67.398438 290.445312 69.304688 288.980469 C 70.039062 291.765625 72.3125 293.890625 75.246094 294.328125 C 79.570312 295.0625 85.65625 295.792969 91.519531 295.867188 C 95.039062 295.867188 98.121094 293.375 98.78125 289.933594 L 103.765625 264.582031 C 105.671875 263.554688 106.917969 262.234375 106.917969 260.769531 C 106.992188 259.230469 106.699219 258.058594 105.15625 257.398438 L 106.476562 250.660156 C 106.769531 250 106.917969 249.339844 106.917969 248.609375 L 108.015625 242.894531 C 106.183594 238.789062 101.566406 241.207031 96.507812 243.257812 Z M 68.28125 256.59375 L 68.28125 257.765625 C 66.007812 257.988281 64.027344 258.28125 64.027344 258.28125 C 64.027344 258.28125 66.007812 257.328125 68.28125 256.59375 Z M 68.648438 269.488281 L 68.648438 270.664062 C 68.132812 270.078125 67.839844 269.636719 67.839844 269.636719 C 67.839844 269.636719 68.132812 269.636719 68.648438 269.488281 Z M 175.25 59.714844 C 184.191406 71.4375 183.167969 92.320312 182.285156 93.492188 C 181.480469 92.027344 180.085938 89.902344 178.621094 89.097656 C 177.15625 88.292969 175.25 88.070312 173.707031 88.730469 C 171.800781 89.609375 170.777344 91.589844 169.164062 92.90625 C 168.355469 93.566406 167.332031 94.078125 166.304688 93.933594 C 165.644531 93.859375 164.984375 93.492188 164.398438 93.128906 C 160.660156 91.222656 156.257812 90.929688 152.300781 92.175781 C 150.175781 92.835938 148.121094 94.007812 145.921875 94.007812 C 143.210938 94.007812 140.789062 92.246094 138.222656 91.441406 C 134.042969 90.125 129.132812 91.296875 126.054688 94.445312 C 127.738281 86.238281 130.230469 75.910156 135.292969 69.242188 C 137.34375 70.414062 139.691406 71.074219 142.035156 71.144531 C 143.648438 71.21875 145.261719 71 146.726562 71.660156 C 147.976562 72.246094 148.855469 73.34375 150.027344 73.929688 C 152.226562 75.027344 154.867188 74.222656 157.066406 73.125 C 159.265625 71.953125 161.320312 70.488281 163.738281 70.121094 C 166.671875 69.679688 169.96875 71.074219 172.609375 69.535156 C 174.074219 68.726562 174.957031 67.117188 175.320312 65.429688 C 175.6875 63.746094 175.46875 61.402344 175.25 59.714844 Z M 117.695312 89.464844 C 117.914062 88.65625 117.183594 87.265625 116.375 86.898438 C 115.640625 86.605469 114.761719 86.605469 113.957031 86.679688 C 113.003906 86.753906 112.050781 86.824219 111.097656 86.898438 C 110.582031 86.972656 109.996094 86.972656 109.484375 86.824219 C 108.605469 86.53125 108.015625 85.726562 107.285156 85.066406 C 105.816406 83.675781 103.765625 82.871094 101.710938 82.871094 C 103.398438 81.039062 103.984375 78.328125 105.230469 76.203125 C 108.53125 70.414062 114.175781 66.089844 119.382812 61.988281 C 119.894531 62.132812 120.113281 62.71875 120.113281 63.234375 C 120.113281 63.746094 119.894531 64.257812 120.042969 64.84375 C 120.261719 65.796875 121.433594 66.308594 122.386719 66.164062 C 123.339844 66.015625 124.21875 65.429688 125.027344 64.917969 C 125.832031 64.40625 126.859375 64.183594 127.738281 64.039062 C 122.679688 71.660156 119.234375 80.378906 117.695312 89.464844 Z M 229.722656 75.6875 C 229.796875 73.785156 226.203125 72.683594 224.296875 72.757812 C 222.390625 72.757812 220.632812 73.855469 219.164062 75.03125 C 217.699219 76.203125 216.230469 77.59375 214.472656 78.328125 C 211.832031 79.351562 208.902344 78.914062 206.113281 78.621094 C 203.328125 78.398438 200.175781 78.472656 198.125 80.453125 C 197.023438 81.476562 196.363281 83.015625 195.410156 84.1875 C 194.457031 85.433594 192.917969 86.460938 191.453125 86.019531 C 191.304688 80.085938 191.304688 71.4375 187.417969 67.042969 C 187.125 66.675781 187.710938 66.308594 188.226562 66.238281 C 192.40625 65.945312 197.097656 67.1875 200.46875 64.625 C 202.523438 63.085938 203.546875 60.523438 204.867188 58.25 C 206.1875 55.980469 208.3125 53.78125 210.878906 54 C 212.714844 54.148438 214.546875 55.539062 216.304688 55.027344 C 218.136719 54.511719 218.871094 52.316406 219.238281 50.410156 C 219.605469 48.503906 219.089844 46.160156 217.992188 44.546875 C 232.65625 56.929688 229.722656 75.6875 229.722656 75.6875 Z M 229.722656 75.6875 " fill-opacity="1" fill-rule="nonzero"/><path fill="#8c5d58" d="M 213.078125 118.480469 C 218.726562 117.746094 220.042969 130.203125 213.960938 137.164062 C 207.875 144.125 205.160156 142.878906 205.160156 142.878906 C 205.160156 142.878906 203.476562 137.96875 204.5 136.503906 C 205.527344 135.039062 207.359375 133.792969 207.507812 130.640625 C 207.65625 127.34375 202.667969 119.429688 213.078125 118.480469 Z M 157.285156 187.207031 L 156.113281 199.515625 L 177.667969 180.101562 C 169.824219 185.523438 157.285156 187.207031 157.285156 187.207031 Z M 63.074219 270.589844 C 63.074219 270.589844 66.375 273.300781 74.804688 274.03125 C 74.804688 274.03125 69.601562 273.59375 67.839844 269.710938 Z M 62.5625 240.988281 C 62.5625 240.988281 54.789062 248.828125 54.570312 249.414062 C 54.351562 250 56.328125 248.828125 56.328125 248.828125 C 58.894531 248.167969 64.761719 245.238281 64.761719 245.238281 L 64.761719 240.402344 Z M 62.5625 240.988281 " fill-opacity="1" fill-rule="nonzero"/><path fill="#472726" d="M 44.085938 253.222656 C 44.230469 255.277344 44.671875 260.625 44.671875 260.625 C 42.984375 258.28125 42.765625 255.421875 42.621094 253.296875 C 42.546875 252.269531 42.472656 251.390625 42.253906 250.878906 L 43.574219 250.292969 C 43.9375 251.097656 44.011719 252.050781 44.085938 253.222656 Z M 53.25 270.664062 C 53.101562 270.589844 52.957031 270.441406 52.808594 270.371094 C 52.445312 270.148438 52.148438 269.929688 51.929688 269.710938 C 51.5625 269.34375 51.34375 268.832031 51.125 268.316406 L 49.292969 267.878906 L 49.730469 268.902344 C 50.023438 269.488281 50.316406 270.148438 50.832031 270.664062 C 51.195312 271.027344 51.636719 271.320312 52.003906 271.542969 C 52.148438 271.613281 52.296875 271.6875 52.445312 271.835938 C 53.25 272.347656 55.667969 273.226562 55.667969 273.226562 C 55.082031 272.273438 54.277344 271.320312 53.25 270.664062 Z M 62.5625 270.664062 C 62.5625 270.664062 65.640625 270.957031 68.058594 270.371094 L 67.695312 268.976562 C 65.128906 269.636719 62.632812 270.664062 62.5625 270.664062 Z M 62.78125 241.648438 C 63.148438 241.5 64.101562 241.207031 64.835938 241.132812 L 64.613281 239.667969 C 63.515625 239.816406 62.121094 240.328125 62.121094 240.328125 L 61.902344 240.402344 L 61.753906 240.546875 C 61.753906 240.546875 56.402344 245.96875 56.402344 245.96875 C 59.773438 245.089844 62.195312 242.378906 62.78125 241.648438 Z M 64.980469 245.96875 L 64.46875 244.578125 C 64.246094 244.652344 63.953125 244.796875 63.585938 244.871094 C 61.679688 245.53125 58.601562 246.628906 56.695312 247.65625 C 54.714844 248.753906 49.292969 252.417969 48.191406 253.808594 C 48.191406 253.808594 55.082031 250.21875 57.355469 248.902344 C 59.117188 247.949219 62.195312 246.847656 64.027344 246.191406 C 64.46875 246.117188 64.761719 246.042969 64.980469 245.96875 Z M 60.433594 238.644531 C 60.433594 238.644531 58.234375 234.980469 58.089844 233.222656 L 56.621094 233.367188 C 56.84375 235.640625 58.382812 237.691406 60.433594 238.644531 Z M 82.210938 230.4375 C 82.210938 230.4375 82.429688 227.652344 82.578125 226.625 L 81.109375 226.40625 C 80.890625 227.800781 81.332031 229.265625 82.210938 230.4375 Z M 72.53125 250.367188 C 72.824219 251.246094 73.265625 252.050781 73.851562 252.785156 C 73.851562 252.785156 73.851562 249.925781 73.632812 248.828125 C 73.484375 248.023438 72.164062 246.042969 72.164062 246.042969 C 71.945312 247.507812 72.019531 248.972656 72.53125 250.367188 Z M 96.945312 247.875 C 96.945312 249.265625 97.167969 250.585938 97.753906 251.90625 C 97.753906 251.90625 98.414062 249.046875 98.414062 247.949219 C 98.414062 247.433594 97.898438 245.898438 97.898438 245.898438 C 97.238281 246.191406 96.945312 246.847656 96.945312 247.875 Z M 79.351562 266.265625 C 79.351562 266.265625 78.910156 264.214844 78.691406 262.234375 C 78.617188 261.285156 77.152344 259.597656 77.152344 259.597656 C 76.859375 262.015625 77.664062 264.507812 79.351562 266.265625 Z M 97.605469 260.992188 C 97.828125 262.015625 98.339844 263.042969 98.925781 263.921875 C 98.925781 263.921875 99.21875 261.503906 99 260.699219 C 98.925781 260.257812 98.265625 258.28125 98.265625 258.28125 C 97.605469 258.71875 97.3125 259.746094 97.605469 260.992188 Z M 83.824219 279.746094 L 84.191406 281.066406 L 85.070312 278.867188 L 83.164062 277.625 Z M 98.046875 289.785156 C 97.460938 292.863281 94.675781 295.136719 91.519531 295.136719 C 85.582031 295.0625 79.496094 294.253906 75.390625 293.597656 C 72.824219 293.15625 70.699219 291.25 70.039062 288.761719 L 68.648438 289.125 C 69.453125 292.203125 72.019531 294.546875 75.171875 295.0625 C 79.351562 295.722656 85.582031 296.527344 91.519531 296.601562 C 91.519531 296.601562 91.59375 296.601562 91.59375 296.601562 C 95.40625 296.601562 98.78125 293.890625 99.511719 290.078125 L 104.5 264.726562 L 103.03125 264.433594 Z M 68.71875 244.503906 L 68.648438 240.839844 C 74 238.714844 77.152344 240.695312 80.449219 242.820312 C 80.964844 243.1875 81.550781 243.550781 82.136719 243.84375 L 82.871094 242.601562 C 82.355469 242.304688 81.769531 241.941406 81.257812 241.574219 C 77.664062 239.300781 74 236.882812 67.621094 239.667969 L 67.179688 239.886719 L 67.328125 244.503906 Z M 108.75 242.527344 C 107.578125 239.230469 102.8125 237.175781 99.144531 237.398438 C 98.191406 237.46875 97.167969 237.542969 96.214844 237.617188 C 94.453125 237.765625 92.109375 237.910156 91.667969 237.765625 L 91.007812 239.082031 C 91.742188 239.449219 93.28125 239.300781 96.285156 239.082031 C 97.238281 239.007812 98.265625 238.9375 99.21875 238.863281 C 100.757812 238.789062 102.59375 239.230469 104.203125 239.960938 C 102.226562 240.109375 99.878906 241.132812 97.53125 242.085938 C 97.09375 242.234375 96.726562 242.453125 96.285156 242.601562 L 96.875 243.917969 C 97.3125 243.773438 97.753906 243.550781 98.121094 243.40625 C 102.886719 241.355469 105.964844 240.253906 107.359375 242.894531 L 106.257812 248.386719 L 107.722656 248.679688 L 108.898438 242.746094 Z M 104.5 257.179688 L 105.964844 257.472656 L 107.285156 250.804688 L 105.816406 250.511719 Z M 258.390625 336.824219 C 255.824219 330.890625 251.351562 318.507812 251.351562 318.507812 C 252.816406 326.933594 255.601562 335.140625 259.5625 342.6875 C 260.515625 344.519531 261.761719 346.644531 263.742188 347.742188 C 263.742188 347.742188 261.6875 343.640625 260.882812 342.027344 C 259.929688 340.417969 259.121094 338.65625 258.390625 336.824219 Z M 272.464844 251.613281 C 272.464844 251.613281 271.21875 259.746094 271 270.441406 C 270.78125 280.261719 270.265625 292.277344 268.875 302.609375 L 270.339844 303.632812 C 273.125 281.945312 272.464844 251.90625 272.464844 251.613281 Z M 157.285156 186.472656 L 157.285156 187.941406 C 157.285156 187.941406 157.359375 187.941406 157.359375 187.941406 C 164.835938 187.941406 180.308594 178.632812 180.96875 178.269531 C 180.96875 178.269531 164.472656 186.472656 157.359375 186.472656 C 157.359375 186.472656 157.285156 186.472656 157.285156 186.472656 Z M 175.25 130.640625 C 171.070312 130.640625 167.402344 128.589844 165.203125 125.585938 C 165.128906 131.742188 167.625 141.339844 172.097656 141.339844 C 179.207031 140.386719 182.582031 137.382812 182.582031 137.382812 C 184.707031 135.992188 185.292969 130.347656 185.292969 125.511719 C 183.09375 128.664062 179.425781 130.640625 175.25 130.640625 Z M 128.691406 139.289062 C 123.195312 139.289062 118.792969 134.816406 118.792969 129.394531 C 118.792969 128.589844 118.867188 127.785156 119.089844 127.050781 L 118.574219 127.199219 C 117.988281 129.761719 120.773438 144.488281 124.953125 146.542969 C 124.953125 146.542969 136.464844 147.492188 137.125 141.777344 C 137.417969 138.921875 137.269531 136.648438 136.902344 134.964844 C 135.070312 137.53125 132.066406 139.289062 128.691406 139.289062 Z M 226.570312 109.539062 L 227.964844 109.90625 C 228.769531 106.683594 226.496094 101.113281 226.496094 101.113281 C 226.496094 101.113281 227.304688 106.609375 226.570312 109.539062 Z M 185.585938 93.347656 L 187.050781 93.492188 C 188.152344 84.628906 183.3125 74.296875 183.09375 73.855469 C 183.09375 73.855469 186.613281 84.921875 185.585938 93.347656 Z M 207.140625 101.113281 C 207.214844 101.554688 208.605469 112.46875 214.03125 115.183594 L 214.691406 113.863281 C 209.925781 111.445312 207.140625 101.113281 207.140625 101.113281 Z M 177.082031 99.355469 C 178.839844 95.253906 176.496094 89.464844 176.496094 89.464844 C 176.496094 89.535156 177.300781 95.03125 175.6875 98.769531 Z M 135.804688 97.597656 C 135.804688 97.597656 133.75 104.996094 130.890625 110.417969 L 132.210938 111.078125 C 135.144531 105.4375 135.730469 97.890625 135.804688 97.597656 Z M 94.96875 129.6875 C 102.519531 125.734375 105.523438 109.394531 106.109375 106.097656 C 106.109375 106.097656 101.34375 124.632812 94.308594 128.371094 Z M 92.472656 117.160156 C 93.132812 111.445312 101.566406 97.15625 101.640625 97.011719 C 101.640625 97.011719 91.667969 111.003906 91.007812 116.941406 Z M 84.484375 114.007812 L 85.730469 112.765625 C 84.703125 107.269531 89.175781 94.519531 89.25 94.371094 C 89.175781 94.445312 83.382812 108.148438 84.484375 114.007812 Z M 88.222656 78.253906 C 88.222656 78.253906 79.058594 90.195312 77.8125 97.375 L 79.277344 97.597656 C 80.449219 90.710938 88.148438 78.398438 88.222656 78.253906 Z M 86.753906 66.894531 C 86.753906 66.894531 79.351562 77.375 78.984375 82.136719 L 80.449219 82.28125 C 80.816406 77.8125 86.683594 67.042969 86.753906 66.894531 Z M 95.332031 50.921875 C 95.332031 50.921875 90.128906 52.976562 86.097656 58.835938 L 87.34375 59.640625 C 91.15625 54 95.261719 50.996094 95.332031 50.921875 Z M 105.597656 35.535156 C 105.597656 35.535156 97.898438 36.78125 92.402344 42.128906 L 93.425781 43.15625 C 98.707031 38.101562 105.523438 35.609375 105.597656 35.535156 Z M 124.660156 23.375 C 124.660156 23.375 111.976562 22.566406 105.890625 24.984375 L 106.40625 26.378906 C 112.269531 24.03125 124.511719 23.375 124.660156 23.375 Z M 129.867188 16.414062 L 129.644531 17.878906 C 135.363281 18.609375 140.570312 20.515625 140.644531 20.515625 C 140.644531 20.515625 135.730469 17.21875 129.867188 16.414062 Z M 158.386719 19.269531 C 158.386719 19.269531 141.449219 14.507812 137.5625 12.96875 L 139.46875 15.09375 C 143.503906 16.707031 157.800781 19.195312 158.386719 19.269531 Z M 177.742188 21.613281 C 177.519531 21.25 172.753906 13.480469 164.542969 11.136719 L 164.105469 12.53125 C 171.800781 14.726562 177.742188 21.613281 177.742188 21.613281 Z M 175.46875 11.285156 L 174.441406 12.308594 C 177.816406 15.605469 186.90625 25.425781 187.050781 25.570312 C 187.050781 25.570312 178.839844 14.652344 175.46875 11.285156 Z M 129.425781 72.613281 C 132.210938 66.75 139.398438 57.957031 139.398438 57.957031 C 128.179688 64.40625 123.121094 84.1875 119.746094 97.230469 C 119.746094 97.304688 119.675781 97.375 119.675781 97.449219 C 118.574219 101.847656 118.136719 107.5625 118.136719 107.5625 C 119.015625 105.875 119.96875 102.210938 121.140625 97.597656 C 122.972656 90.5625 125.539062 80.746094 129.425781 72.613281 Z M 91.082031 89.097656 C 91.082031 89.097656 96.875 81.039062 100.832031 75.980469 C 105.011719 70.632812 110.289062 65.066406 115.640625 60.886719 C 120.480469 57.152344 129.425781 52.386719 129.425781 52.386719 C 114.835938 54.367188 95.261719 78.035156 91.082031 89.097656 Z M 208.242188 33.046875 L 208.679688 31.652344 C 201.570312 29.453125 195.117188 30.113281 189.105469 33.558594 C 189.105469 33.484375 201.421875 30.921875 208.242188 33.046875 Z M 196.363281 35.171875 C 196.363281 35.171875 201.277344 39.054688 203.914062 41.617188 C 206.1875 43.890625 209.78125 47.917969 209.78125 47.917969 C 209.265625 43.742188 200.617188 35.464844 196.363281 35.171875 Z M 182.285156 40.519531 C 182.285156 40.519531 187.859375 43.816406 190.132812 46.601562 C 193.136719 50.265625 197.023438 55.832031 197.023438 55.832031 C 196.21875 52.902344 189.617188 39.492188 182.285156 40.519531 Z M 201.570312 147.640625 C 201.863281 147.714844 202.375 147.789062 203.035156 147.789062 C 205.601562 147.789062 210.148438 146.90625 212.933594 144.050781 L 211.90625 143.023438 C 208.828125 146.175781 201.570312 147.640625 201.570312 147.640625 Z M 141.304688 146.394531 L 141.523438 140.753906 L 139.175781 146.320312 Z M 149.074219 162.882812 C 148.121094 162.734375 147.316406 162.441406 146.800781 162 C 146.800781 162 147.753906 163.90625 148.929688 164.054688 C 149.367188 164.125 149.808594 164.125 150.320312 164.125 C 153.105469 164.125 155.964844 162.882812 157.800781 160.757812 C 157.726562 160.828125 151.859375 163.320312 149.074219 162.882812 Z M 206.1875 122.214844 C 205.453125 124.046875 205.96875 125.878906 206.40625 127.710938 C 206.847656 129.324219 207.214844 130.863281 206.773438 132.179688 C 206.554688 132.839844 206.113281 133.425781 205.601562 134.085938 C 205.234375 134.597656 204.867188 135.039062 204.574219 135.625 C 203.328125 137.96875 203.695312 141.121094 205.453125 143.097656 C 205.453125 143.097656 204.867188 138.117188 205.894531 136.285156 C 206.113281 135.84375 206.480469 135.40625 206.847656 134.964844 C 207.359375 134.230469 207.875 133.574219 208.242188 132.695312 C 208.902344 130.933594 208.386719 129.101562 207.949219 127.34375 C 207.507812 125.734375 207.066406 124.121094 207.652344 122.800781 C 208.460938 120.75 213.519531 118.84375 213.519531 118.84375 C 210.734375 118.550781 207.289062 119.503906 206.1875 122.214844 Z M 206.1875 122.214844 " fill-opacity="1" fill-rule="nonzero"/><g clip-path="url(#c14720c763)"><path fill="#110c0e" d="M 357 338.4375 C 356.925781 338.21875 348.273438 313.378906 335.296875 270.371094 C 335.152344 269.929688 319.683594 225.894531 292.996094 208.820312 C 275.03125 197.316406 254.941406 193.214844 241.671875 190.578125 C 240.132812 190.285156 238.742188 189.992188 237.347656 189.699219 L 237.492188 189.625 L 235.660156 189.332031 C 233.976562 189.113281 229.210938 188.160156 227.597656 186.839844 L 227.523438 186.765625 C 220.191406 182.515625 211.394531 159.363281 213.078125 143.902344 C 219.605469 138.261719 222.023438 131.375 221.804688 125.511719 C 225.617188 120.605469 227.523438 111.738281 227.890625 110.050781 C 229.136719 109.027344 234.5625 103.679688 233.242188 90.488281 C 238.519531 72.683594 233.167969 42.128906 209.855469 32.09375 C 214.621094 27.625 214.253906 18.902344 214.179688 18.464844 L 214.03125 15.898438 L 212.785156 18.097656 C 212.785156 18.171875 209.558594 23.886719 203.695312 27.035156 C 206.628906 12.382812 191.597656 4.394531 191.453125 4.324219 L 188.886719 3.078125 L 190.570312 5.496094 C 190.644531 5.570312 197.023438 14.945312 195.191406 22.640625 C 188.957031 4.175781 167.402344 0.878906 167.183594 0.878906 L 165.058594 0.585938 L 166.523438 2.125 C 167.625 3.296875 169.75 5.640625 171.582031 7.914062 C 166.011719 3.664062 159.117188 1.757812 158.753906 1.613281 L 152.886719 0 L 158.164062 2.929688 C 161.023438 4.542969 163.078125 8.644531 163.957031 10.84375 C 158.3125 8.867188 152.519531 8.425781 146.875 7.988281 C 141.523438 7.546875 136.464844 7.179688 132.433594 5.421875 L 130.304688 4.46875 L 131.480469 6.449219 C 132.871094 8.792969 135.144531 11.429688 136.757812 13.042969 C 129.71875 11.355469 123.414062 8.132812 123.339844 8.058594 L 122.167969 7.472656 L 122.3125 8.792969 C 122.3125 9.011719 122.753906 12.894531 127.8125 16.265625 C 120.113281 16.191406 105.304688 17.660156 96.800781 24.398438 L 93.5 27.035156 L 97.53125 25.644531 C 99.953125 24.839844 103.179688 25.277344 105.230469 25.71875 C 100.613281 28.136719 97.019531 31.800781 93.867188 35.023438 C 91.15625 37.808594 88.589844 40.371094 85.730469 41.910156 L 84.410156 42.644531 L 85.730469 43.230469 C 87.121094 43.890625 89.320312 43.816406 90.933594 43.597656 C 85.289062 50.484375 85.730469 57.589844 85.875 58.984375 C 78.691406 72.390625 78.835938 81.039062 78.910156 81.988281 C 77.371094 92.90625 72.53125 98.328125 72.457031 98.402344 L 71.285156 99.648438 L 72.972656 99.574219 C 73.117188 99.574219 75.757812 99.5 77.8125 98.109375 C 75.390625 113.570312 82.796875 120.164062 83.089844 120.457031 L 84.335938 121.484375 L 84.335938 119.871094 C 84.335938 119.136719 84.484375 118.113281 84.703125 117.160156 C 85.730469 121.777344 87.636719 125.511719 87.707031 125.660156 L 88.367188 126.90625 L 89.027344 125.585938 C 89.027344 125.511719 89.46875 124.707031 90.347656 122.507812 C 90.054688 128.589844 90.933594 133.058594 90.933594 133.28125 L 92.035156 139.140625 L 92.402344 133.132812 C 92.472656 132.328125 92.839844 130.277344 94.085938 129.6875 C 98.484375 129.394531 102.445312 128.152344 105.964844 125.953125 L 108.53125 130.054688 C 108.53125 130.054688 108.605469 130.054688 108.675781 129.980469 C 108.675781 129.980469 108.675781 130.054688 108.675781 130.054688 C 108.675781 130.128906 108.675781 130.128906 108.675781 130.203125 C 108.675781 130.347656 108.75 130.421875 108.75 130.570312 C 108.75 130.640625 108.75 130.640625 108.824219 130.714844 C 108.824219 130.863281 108.898438 130.933594 108.898438 131.082031 C 108.898438 131.15625 108.898438 131.226562 108.96875 131.300781 C 108.96875 131.449219 109.042969 131.519531 109.042969 131.667969 C 109.042969 131.742188 109.117188 131.8125 109.117188 131.886719 C 109.117188 132.035156 109.191406 132.105469 109.191406 132.253906 C 109.191406 132.328125 109.265625 132.398438 109.265625 132.546875 C 109.265625 132.695312 109.335938 132.839844 109.335938 132.914062 C 109.335938 132.988281 109.410156 133.132812 109.410156 133.207031 C 109.410156 133.351562 109.484375 133.425781 109.484375 133.574219 C 109.484375 133.71875 109.558594 133.792969 109.558594 133.9375 C 109.558594 134.011719 109.628906 134.085938 109.628906 134.230469 C 109.703125 134.378906 109.703125 134.523438 109.777344 134.746094 C 109.777344 134.816406 109.777344 134.816406 109.777344 134.890625 C 109.851562 135.113281 109.851562 135.332031 109.921875 135.550781 C 109.921875 135.625 109.921875 135.625 109.996094 135.699219 C 110.21875 136.429688 110.363281 137.234375 110.582031 138.042969 C 110.582031 138.117188 110.582031 138.117188 110.582031 138.1875 C 110.730469 138.703125 110.875 139.289062 111.023438 139.800781 C 112.929688 147.273438 115.277344 156.578125 117.035156 161.121094 C 120.042969 168.890625 144.089844 186.695312 151.199219 187.574219 C 153.621094 187.867188 155.304688 187.792969 156.257812 187.71875 C 156.40625 191.601562 156.039062 199.808594 153.253906 202.152344 C 152.742188 202.519531 152.152344 202.742188 151.640625 202.960938 C 150.90625 203.253906 149.882812 203.472656 148.855469 203.691406 C 148.414062 203.765625 148.195312 203.765625 148.121094 203.765625 L 147.679688 203.839844 L 147.679688 203.914062 C 144.527344 204.5 140.570312 205.011719 136.464844 205.523438 C 129.574219 206.402344 121.726562 207.355469 116.375 209.042969 C 114.6875 202.226562 110.144531 193.726562 98.046875 190.429688 L 101.566406 163.613281 C 101.785156 161.929688 100.246094 160.535156 97.828125 160.171875 C 95.480469 159.804688 92.914062 160.390625 92.546875 162.441406 L 88.882812 189.183594 C 74.070312 188.964844 64.613281 199.589844 62.78125 210.582031 L 60.363281 210.359375 L 59.554688 218.273438 L 62.929688 218.566406 L 63.222656 228.75 C 62.121094 229.042969 61.167969 229.335938 60.289062 229.558594 C 54.496094 231.390625 50.023438 235.933594 47.386719 238.644531 C 47.089844 238.9375 46.796875 239.230469 46.578125 239.449219 C 43.9375 242.085938 42.324219 245.898438 42.105469 250.074219 L 40.859375 252.859375 C 39.6875 255.496094 37.855469 259.597656 35.582031 264.582031 C 33.746094 268.539062 31.328125 273.445312 28.6875 278.648438 C 24.363281 287.148438 19.890625 295.941406 18.058594 301.65625 L 18.058594 302.386719 L 18.203125 302.683594 C 18.5 303.195312 26.125 315.359375 50.242188 329.425781 C 72.386719 342.320312 113.296875 359.246094 182.285156 366.5 C 193.796875 367.527344 204.941406 367.964844 215.574219 367.964844 C 253.988281 367.964844 286.101562 362.03125 308.023438 356.390625 C 338.378906 348.550781 356.414062 339.464844 356.558594 339.390625 L 357.144531 339.097656 Z M 106.769531 124.121094 C 103.105469 126.832031 98.78125 128.296875 94.015625 128.664062 L 93.792969 128.738281 C 93.0625 129.03125 92.472656 129.542969 92.109375 130.128906 C 91.816406 127.125 91.667969 122.433594 92.546875 117.234375 L 91.15625 116.867188 C 89.910156 120.382812 89.101562 122.582031 88.515625 123.828125 C 87.636719 121.777344 86.167969 117.894531 85.730469 113.863281 L 85.363281 110.199219 L 84.335938 113.714844 C 84.261719 113.863281 83.53125 116.355469 83.238281 118.480469 C 81.257812 115.839844 77.222656 108.808594 79.9375 96.132812 L 81.332031 89.683594 L 78.542969 95.691406 C 77.8125 97.230469 76.125 97.890625 74.804688 98.183594 C 76.417969 95.839844 79.351562 90.636719 80.523438 82.429688 L 80.523438 82.28125 C 80.523438 82.210938 80.011719 73.417969 87.414062 59.789062 L 87.5625 59.570312 L 87.488281 59.347656 C 87.488281 59.277344 86.316406 50.851562 93.5 43.375 L 95.1875 41.691406 L 92.839844 42.203125 C 91.960938 42.421875 89.761719 42.71875 88.074219 42.570312 C 90.496094 40.957031 92.695312 38.6875 94.96875 36.34375 C 98.632812 32.605469 102.371094 28.722656 107.652344 26.523438 L 109.484375 25.792969 L 107.503906 24.984375 C 107.285156 24.910156 103.839844 23.8125 100.320312 23.886719 C 110.289062 17.953125 125.832031 17.4375 130.890625 18.023438 L 135.585938 18.539062 L 131.257812 16.632812 C 126.640625 14.582031 124.808594 11.871094 124.148438 10.257812 C 126.859375 11.503906 132.726562 13.996094 138.882812 15.167969 L 141.304688 15.605469 L 139.542969 13.921875 C 139.46875 13.921875 136.390625 10.84375 134.042969 7.695312 C 137.785156 8.867188 142.183594 9.230469 146.800781 9.597656 C 152.886719 10.039062 159.117188 10.550781 165.058594 12.894531 L 166.523438 13.480469 L 166.011719 12.015625 C 165.9375 11.796875 164.542969 7.546875 161.90625 4.394531 C 165.644531 5.863281 171.507812 8.792969 174.734375 13.1875 L 176.789062 16.046875 L 176.054688 12.601562 C 175.46875 10.113281 171.507812 5.421875 169.238281 2.929688 C 175.027344 4.324219 190.5 9.523438 194.53125 25.351562 L 195.042969 27.328125 L 195.921875 25.425781 C 198.855469 19.050781 195.628906 11.355469 193.503906 7.398438 C 197.683594 10.40625 205.160156 17.4375 202.082031 28.355469 L 201.640625 29.820312 L 203.035156 29.160156 C 207.726562 27.109375 211.027344 23.445312 212.785156 21.101562 C 212.566406 24.179688 211.613281 29.308594 208.09375 31.726562 L 206.996094 32.53125 L 208.242188 33.046875 C 231.773438 42.277344 237.128906 72.757812 231.847656 90.269531 L 231.773438 90.417969 L 231.773438 90.5625 C 233.242188 104.335938 226.863281 109.101562 226.789062 109.101562 L 226.570312 109.246094 L 226.496094 109.539062 C 226.496094 109.613281 224.882812 117.964844 221.585938 123.316406 C 221.363281 121.703125 220.925781 120.238281 220.265625 118.917969 C 219.164062 116.5 217.183594 114.742188 214.546875 113.789062 C 210.808594 112.46875 206.703125 112.984375 204.355469 114.082031 C 203.546875 114.523438 202.667969 114.523438 201.714844 114.15625 C 194.96875 111.738281 187.050781 93.273438 186.980469 93.128906 L 185.660156 90.050781 L 185.585938 93.347656 C 185.585938 93.492188 185.144531 104.117188 176.640625 108.585938 C 178.179688 103.679688 177.226562 99.0625 177.15625 98.84375 L 176.496094 95.984375 L 175.6875 98.84375 C 175.6875 98.988281 172.316406 110.417969 160.878906 114.449219 C 164.835938 105.65625 163.664062 100.96875 163.589844 100.746094 L 163.078125 98.695312 L 162.273438 100.675781 C 162.199219 100.820312 156.480469 114.007812 147.167969 117.671875 C 151.566406 111.152344 151.054688 105.21875 151.054688 104.921875 L 150.761719 102.140625 L 149.660156 104.703125 C 149.585938 104.851562 144.015625 117.085938 137.199219 119.429688 C 133.089844 120.824219 130.890625 121.191406 129.71875 121.261719 C 130.964844 118.917969 133.679688 113.128906 132.652344 109.464844 L 131.992188 107.339844 L 131.257812 109.464844 C 131.183594 109.539062 128.03125 118.113281 118.574219 122.507812 C 116.890625 122.363281 115.128906 122.433594 113.222656 122.800781 C 114.101562 121.261719 114.835938 119.210938 114.910156 116.792969 L 114.984375 113.277344 L 113.515625 116.5 C 113.441406 116.5 111.464844 120.675781 106.769531 124.121094 Z M 129.71875 138.480469 C 125.171875 139.140625 120.261719 135.332031 119.527344 131.742188 C 119.308594 130.421875 119.160156 129.25 119.160156 128.371094 C 123.558594 128.003906 128.691406 128.296875 133.164062 130.421875 C 134.042969 131.226562 134.777344 131.960938 135.21875 132.398438 C 135.363281 132.546875 135.730469 133.351562 136.097656 134.816406 C 135.585938 135.550781 133.679688 137.894531 129.71875 138.480469 Z M 136.390625 136.722656 C 136.539062 138.042969 136.539062 139.726562 136.316406 141.707031 C 135.878906 145.734375 128.179688 146.101562 125.101562 145.882812 C 123.265625 144.855469 121.582031 140.535156 120.480469 136.355469 C 122.019531 137.96875 124.074219 139.214844 126.347656 139.800781 C 126.566406 140.535156 127.007812 141.632812 127.8125 142 C 129.058594 142.585938 130.597656 141.632812 130.671875 139.875 C 133.53125 139.214844 135.363281 137.824219 136.390625 136.722656 Z M 109.265625 124.046875 C 110.730469 122.800781 111.828125 121.554688 112.636719 120.457031 C 112.195312 121.628906 111.609375 122.65625 111.023438 123.386719 C 110.4375 123.535156 109.851562 123.753906 109.265625 124.046875 Z M 149 205.597656 C 149.074219 205.597656 149.148438 205.597656 149.222656 205.523438 C 149.953125 205.378906 151.273438 205.160156 152.519531 204.570312 C 153.328125 204.277344 153.988281 203.914062 154.425781 203.546875 C 157.359375 201.128906 157.945312 194.535156 158.019531 190.429688 C 158.019531 190.066406 158.019531 189.699219 158.019531 189.40625 C 158.019531 189.113281 158.019531 188.746094 158.019531 188.527344 C 158.019531 187.71875 157.945312 187.207031 157.945312 187.132812 L 157.871094 186.253906 L 156.992188 186.472656 C 156.992188 186.472656 155.160156 186.914062 151.640625 186.472656 C 145.042969 185.667969 121.507812 168.230469 118.722656 160.902344 C 117.035156 156.507812 114.6875 147.199219 112.78125 139.800781 C 111.757812 135.769531 110.875 132.179688 110.21875 129.984375 C 111.828125 129.542969 114.542969 128.882812 117.769531 128.515625 C 117.839844 129.46875 117.914062 130.640625 118.136719 132.035156 C 118.136719 132.105469 118.136719 132.179688 118.207031 132.253906 C 119.015625 136.871094 120.699219 143.171875 123.195312 146.027344 C 120.921875 146.175781 119.453125 146.46875 119.453125 146.46875 C 119.453125 146.46875 121.507812 147.128906 124.585938 147.199219 C 124.585938 147.199219 124.660156 147.273438 124.660156 147.273438 L 124.808594 147.347656 L 124.953125 147.347656 C 125.101562 147.347656 125.832031 147.421875 126.859375 147.421875 C 130.304688 147.421875 137.34375 146.835938 137.855469 141.925781 C 138.515625 136.0625 137.125 132.328125 136.316406 131.449219 C 136.246094 131.375 131.039062 125.660156 126.199219 124.707031 C 124.585938 123.972656 122.828125 123.316406 120.996094 122.949219 C 126.492188 119.796875 129.71875 115.402344 131.332031 112.617188 C 130.820312 116.648438 127.886719 121.628906 127.886719 121.628906 L 127.445312 122.363281 L 128.253906 122.65625 C 128.546875 122.800781 130.527344 123.242188 137.636719 120.824219 C 142.769531 119.066406 147.09375 112.542969 149.292969 108.585938 C 148.855469 111.152344 147.679688 114.890625 144.601562 118.625 L 143.28125 120.238281 L 145.335938 119.796875 C 153.914062 117.894531 159.851562 108.515625 162.34375 103.898438 C 162.199219 106.242188 161.464844 110.125 158.898438 115.402344 L 158.164062 116.867188 L 159.707031 116.425781 C 169.308594 113.789062 174.074219 106.316406 175.980469 102.140625 C 176.054688 104.191406 175.835938 107.046875 174.589844 109.757812 L 173.855469 111.371094 L 175.542969 110.710938 C 183.460938 107.636719 185.953125 100.089844 186.6875 96.058594 C 189.179688 101.261719 195.410156 113.421875 201.203125 115.546875 C 202.523438 116.0625 203.84375 115.988281 204.941406 115.402344 C 206.996094 114.449219 210.660156 113.9375 213.960938 115.183594 C 216.230469 115.988281 217.917969 117.527344 218.871094 119.503906 C 221.65625 125.585938 220.632812 135.476562 211.761719 143.023438 L 211.539062 143.246094 L 211.539062 143.539062 C 209.632812 159.730469 218.726562 183.46875 226.644531 188.085938 C 228.257812 189.332031 231.628906 190.136719 233.679688 190.503906 C 230.601562 193.070312 227.816406 197.097656 224.664062 201.640625 C 216.820312 212.925781 207.140625 226.992188 186.097656 228.972656 C 166.082031 230.804688 156.625 222.890625 152.8125 217.980469 C 149.222656 213.21875 148.269531 208.382812 149 205.597656 Z M 115.9375 215.78125 L 95.1875 213.878906 L 97.53125 195.925781 C 98.414062 195.78125 99.4375 195.632812 100.390625 195.339844 L 100.027344 193.949219 C 99.21875 194.167969 98.484375 194.3125 97.753906 194.460938 L 98.046875 192.410156 C 113.296875 196.585938 115.714844 209.628906 115.9375 215.78125 Z M 96.507812 163.980469 C 97.167969 164.054688 98.414062 164.199219 99.367188 163.980469 C 99.367188 163.980469 97.972656 165.519531 97.460938 165.519531 C 97.019531 165.519531 96.578125 165.445312 96.214844 165.445312 C 94.820312 165.226562 94.675781 163.46875 94.675781 163.46875 C 94.675781 163.46875 95.480469 163.832031 96.507812 163.980469 Z M 95.039062 215.34375 L 118.792969 217.539062 L 118.28125 222.523438 L 116.007812 222.304688 L 116.007812 222.15625 L 94.378906 220.179688 Z M 94.160156 221.789062 L 114.25 223.621094 L 101.34375 298.652344 C 82.210938 301.730469 69.011719 296.308594 66.59375 295.207031 L 66.519531 291.617188 C 70.480469 289.347656 72.605469 286.929688 72.898438 286.5625 C 73.707031 285.828125 75.390625 285.242188 77.445312 284.804688 C 78.03125 286.195312 79.351562 287.222656 80.964844 287.222656 C 83.015625 287.222656 84.703125 285.609375 84.777344 283.558594 C 85.070312 283.484375 85.363281 283.484375 85.65625 283.410156 C 85.65625 283.558594 85.65625 283.632812 85.65625 283.777344 C 85.65625 285.902344 87.34375 287.589844 89.46875 287.589844 C 91.59375 287.589844 93.28125 285.902344 93.28125 283.777344 C 93.28125 283.265625 93.207031 282.824219 92.988281 282.386719 C 94.085938 282.164062 95.113281 282.019531 95.921875 281.726562 C 99.367188 280.699219 101.050781 277.402344 100.464844 274.984375 C 100.027344 273.375 98.707031 272.566406 96.945312 272.933594 C 86.976562 274.984375 75.90625 273.59375 72.753906 272.933594 C 71.210938 272.421875 69.894531 271.027344 69.085938 270.148438 C 70.257812 269.855469 72.238281 269.417969 73.632812 269.195312 C 75.757812 268.832031 90.421875 267.292969 96.285156 267.070312 C 102.664062 266.777344 107.503906 264.066406 107.578125 260.769531 C 107.578125 259.597656 107.503906 258.425781 106.625 257.546875 C 105.378906 256.226562 102.738281 255.714844 97.238281 255.714844 C 90.203125 255.714844 80.449219 256.226562 75.246094 256.519531 C 74 256.59375 73.046875 256.667969 72.457031 256.667969 C 71.800781 256.667969 70.917969 256.742188 70.039062 256.8125 C 70.699219 256.667969 71.359375 256.519531 72.019531 256.449219 C 74.730469 256.15625 82.429688 255.347656 94.453125 255.277344 C 100.90625 255.203125 104.863281 254.101562 106.625 251.90625 C 107.652344 250.660156 107.945312 249.046875 107.429688 246.996094 C 106.550781 243.113281 102.957031 242.964844 98.046875 242.671875 C 97.460938 242.671875 96.875 242.601562 96.214844 242.601562 C 94.894531 242.527344 93.207031 242.453125 91.449219 242.453125 Z M 88.882812 191.015625 L 88.515625 193.433594 C 87.269531 192.921875 86.609375 192.410156 86.609375 192.335938 L 85.65625 193.433594 C 85.730469 193.507812 86.609375 194.242188 88.296875 194.898438 L 85.800781 212.925781 L 64.394531 211.09375 C 66.226562 200.835938 75.023438 190.871094 88.882812 191.015625 Z M 63 217.246094 L 63 217.46875 L 61.242188 217.320312 L 61.753906 212.339844 L 85.582031 214.535156 L 84.921875 219.300781 Z M 84.777344 220.910156 L 84.191406 225.308594 C 83.53125 225.308594 82.796875 225.382812 81.988281 225.453125 C 79.128906 225.675781 71.140625 227.140625 64.835938 228.75 L 64.539062 219.078125 Z M 51.195312 328.179688 C 29.347656 315.503906 20.992188 304.074219 19.671875 302.167969 C 21.578125 296.601562 25.902344 288.027344 30.15625 279.675781 C 32.792969 274.472656 35.289062 269.5625 37.121094 265.535156 C 39.320312 260.550781 41.226562 256.449219 42.398438 253.808594 L 43.792969 250.804688 L 43.792969 250.660156 C 43.9375 246.847656 45.480469 243.257812 47.824219 240.839844 C 48.042969 240.621094 48.339844 240.328125 48.632812 240.035156 C 51.195312 237.398438 55.523438 233 60.949219 231.316406 C 67.035156 229.410156 78.617188 227.140625 82.136719 226.847656 C 86.753906 226.480469 89.46875 226.699219 90.347656 227.503906 C 90.566406 227.726562 90.714844 228.019531 90.714844 228.457031 C 90.714844 231.976562 87.488281 234.101562 81.035156 234.6875 C 73.117188 235.492188 64.835938 239.449219 64.46875 239.59375 L 64.027344 239.816406 L 64.027344 246.117188 L 64.90625 245.898438 C 64.980469 245.898438 71.359375 244.285156 74.585938 244.136719 L 75.171875 244.136719 C 78.984375 243.992188 90.496094 243.550781 96.140625 243.917969 C 96.800781 243.992188 97.386719 243.992188 97.972656 243.992188 C 103.105469 244.285156 105.378906 244.503906 106.039062 247.140625 C 106.40625 248.753906 106.257812 249.925781 105.523438 250.804688 C 104.058594 252.636719 100.320312 253.589844 94.453125 253.664062 C 82.429688 253.808594 74.660156 254.542969 71.871094 254.835938 C 68.71875 255.203125 63.953125 257.328125 63.734375 257.398438 L 59.261719 259.378906 L 64.101562 258.792969 C 64.175781 258.792969 69.820312 258.058594 72.53125 257.988281 C 73.117188 257.988281 74.070312 257.914062 75.316406 257.839844 C 80.523438 257.546875 90.273438 257.035156 97.238281 257.035156 C 102.078125 257.035156 104.71875 257.472656 105.597656 258.425781 C 106.039062 258.867188 106.183594 259.453125 106.109375 260.625 C 106.039062 263.117188 101.640625 265.3125 96.214844 265.535156 C 90.566406 265.753906 75.90625 267.292969 73.410156 267.660156 C 71.140625 268.023438 67.765625 268.832031 67.621094 268.832031 L 66.59375 269.050781 L 67.179688 269.929688 C 67.253906 270.078125 69.527344 273.226562 72.3125 274.179688 L 72.386719 274.179688 C 75.539062 274.839844 86.902344 276.304688 97.167969 274.179688 C 98.339844 273.960938 98.78125 274.617188 98.925781 275.207031 C 99.292969 276.671875 98.265625 279.308594 95.40625 280.1875 C 93.574219 280.699219 90.421875 281.140625 87.121094 281.578125 C 80.671875 282.457031 74.070312 283.339844 71.800781 285.390625 L 71.726562 285.464844 C 71.652344 285.535156 67.914062 290.152344 60.363281 292.644531 L 59.847656 292.789062 L 59.847656 293.304688 C 59.773438 298.433594 56.476562 324.957031 55.742188 330.671875 C 54.203125 329.9375 52.664062 329.058594 51.195312 328.179688 Z M 81.769531 242.527344 C 79.058594 242.601562 76.636719 242.671875 75.097656 242.746094 L 74.511719 242.746094 C 71.871094 242.820312 67.328125 243.84375 65.421875 244.285156 L 65.421875 240.769531 C 67.179688 239.960938 74.363281 236.882812 81.109375 236.152344 C 81.625 236.078125 82.210938 236.003906 82.648438 235.933594 Z M 307.65625 354.996094 C 279.796875 362.175781 235.441406 369.796875 182.433594 365.035156 C 119.675781 358.441406 80.304688 343.785156 57.210938 331.550781 C 57.722656 327.375 61.167969 300.558594 61.386719 294.035156 C 62.707031 293.597656 63.953125 293.011719 65.054688 292.496094 L 65.128906 296.234375 L 65.492188 296.453125 C 65.933594 296.671875 74.953125 301.144531 89.542969 301.144531 C 93.355469 301.144531 97.53125 300.851562 102.003906 300.117188 L 102.519531 300.042969 L 115.640625 223.914062 L 119.453125 224.28125 L 120.261719 216.367188 L 117.328125 216.074219 C 117.253906 214.683594 117.109375 212.925781 116.742188 211.019531 C 121.949219 209.335938 129.792969 208.382812 136.683594 207.503906 C 140.644531 206.988281 144.308594 206.550781 147.316406 205.964844 C 146.800781 209.1875 147.902344 214.097656 151.640625 218.933594 C 155.234375 223.550781 163.589844 230.730469 180.308594 230.730469 C 182.140625 230.730469 184.121094 230.65625 186.246094 230.4375 C 207.949219 228.457031 217.84375 214.023438 225.835938 202.519531 C 229.28125 197.539062 232.214844 193.214844 235.585938 190.871094 C 237.347656 191.238281 239.253906 191.601562 241.234375 192.042969 C 254.429688 194.679688 274.300781 198.710938 292.042969 210.140625 C 318.289062 226.917969 333.613281 270.515625 333.757812 270.957031 C 345.5625 310.230469 353.847656 334.335938 355.238281 338.4375 C 352.085938 339.902344 334.859375 347.964844 307.65625 354.996094 Z M 79.863281 289.640625 C 79.863281 291.765625 78.175781 293.449219 76.050781 293.449219 C 73.925781 293.449219 72.238281 291.765625 72.238281 289.640625 C 72.238281 287.515625 73.925781 285.828125 76.050781 285.828125 C 78.175781 285.828125 79.863281 287.589844 79.863281 289.640625 Z M 97.386719 290.300781 C 97.386719 292.421875 95.699219 294.109375 93.574219 294.109375 C 91.449219 294.109375 89.761719 292.421875 89.761719 290.300781 C 89.761719 288.175781 91.449219 286.488281 93.574219 286.488281 C 95.699219 286.488281 97.386719 288.246094 97.386719 290.300781 Z M 164.765625 122.949219 C 164.03125 127.199219 165.277344 135.183594 167.917969 139.289062 C 168.429688 140.09375 168.941406 140.679688 169.53125 141.121094 C 169.015625 141.121094 168.578125 141.191406 168.0625 141.191406 C 165.570312 141.191406 163.222656 141.484375 163.222656 141.484375 C 163.222656 141.484375 165.496094 142.363281 167.988281 142.363281 C 169.238281 142.363281 170.554688 142.292969 171.730469 142.070312 C 171.875 142.070312 172.023438 142.070312 172.167969 142.070312 L 172.316406 142.070312 C 179.207031 141.121094 182.726562 138.335938 183.09375 137.96875 C 186.613281 135.550781 186.246094 123.972656 185.660156 119.796875 C 185.734375 119.796875 185.734375 119.796875 185.804688 119.796875 C 187.785156 118.257812 189.472656 112.984375 189.472656 112.984375 C 183.09375 116.0625 155.601562 111.296875 155.894531 130.863281 C 156.992188 127.929688 160.367188 125.074219 164.765625 122.949219 Z M 182.214844 136.796875 L 182.140625 136.871094 C 182.140625 136.871094 178.914062 139.652344 172.097656 140.605469 C 171.070312 140.605469 170.042969 139.875 169.089844 138.410156 C 167.402344 135.769531 166.378906 131.519531 166.082031 127.859375 C 167.625 129.175781 170.410156 130.933594 174.074219 131.300781 C 174.441406 132.253906 175.25 133.792969 176.714844 133.71875 C 178.035156 133.644531 178.988281 132.105469 178.914062 130.863281 C 181.113281 130.277344 182.945312 129.175781 184.488281 127.566406 C 184.414062 131.742188 183.753906 135.769531 182.214844 136.796875 Z M 166.449219 122.140625 C 171.65625 119.945312 178.035156 118.773438 184.121094 119.578125 C 184.339844 121.042969 184.558594 123.09375 184.558594 125.292969 C 183.828125 126.320312 181.554688 129.542969 175.910156 129.835938 C 170.628906 130.128906 166.890625 126.613281 166.082031 125.734375 C 166.011719 124.265625 166.15625 123.023438 166.449219 122.140625 Z M 88.589844 290.664062 C 88.589844 292.789062 86.902344 294.476562 84.777344 294.476562 C 82.648438 294.476562 80.964844 292.789062 80.964844 290.664062 C 80.964844 288.539062 82.648438 286.855469 84.777344 286.855469 C 86.902344 286.855469 88.589844 288.539062 88.589844 290.664062 Z M 88.589844 290.664062 " fill-opacity="1" fill-rule="nonzero"/></g></svg>